<?xml version="1.0" encoding="UTF-8" standalone="no"?>
<svg
   xmlns:dc="http://purl.org/dc/elements/1.1/"
   xmlns:cc="http://creativecommons.org/ns#"
   xmlns:rdf="http://www.w3.org/1999/02/22-rdf-syntax-ns#"
   xmlns:svg="http://www.w3.org/2000/svg"
   xmlns="http://www.w3.org/2000/svg"
   xmlns:sodipodi="http://sodipodi.sourceforge.net/DTD/sodipodi-0.dtd"
   xmlns:inkscape="http://www.inkscape.org/namespaces/inkscape"
   sodipodi:docname="favicon2.svg"
   inkscape:version="1.0 (4035a4fb49, 2020-05-01)"
   id="svg8"
   version="1.1"
   viewBox="0 0 639.80007 639.80002"
   height="639.80005mm"
   width="639.80005mm">
  <defs
     id="defs2">
    <inkscape:path-effect
       effect="fillet_chamfer"
       id="path-effect935"
       is_visible="true"
       lpeversion="1"
       satellites_param="F,0,0,1,0,0,0,1 @ F,0,1,1,0,5.2916667,0,1 @ F,0,1,1,0,5.2916667,0,1 @ F,0,0,1,0,0,0,1 @ F,0,1,1,0,5.2916667,0,1 @ F,0,1,1,0,5.2916667,0,1 @ F,0,1,1,0,5.2916667,0,1 @ F,0,0,1,0,0,0,1 @ F,0,0,1,0,0,0,1 @ F,0,1,1,0,5.2916667,0,1 @ F,0,1,1,0,5.2916667,0,1 @ F,0,0,1,0,0,0,1 @ F,0,0,1,0,0,0,1 @ F,0,0,1,0,0,0,1 @ F,0,0,1,0,0,0,1 @ F,0,0,1,0,0,0,1 @ F,0,0,1,0,0,0,1 @ F,0,0,1,0,0,0,1 @ F,0,0,1,0,0,0,1 @ F,0,0,1,0,0,0,1 @ F,0,0,1,0,0,0,1 @ F,0,0,1,0,0,0,1 @ F,0,0,1,0,0,0,1 @ F,0,0,1,0,0,0,1 @ F,0,0,1,0,0,0,1 @ F,0,0,1,0,0,0,1 | F,0,0,1,0,0,0,1 @ F,0,0,1,0,0,0,1 @ F,0,0,1,0,0,0,1 @ F,0,0,1,0,0,0,1 @ F,0,0,1,0,0,0,1 @ F,0,0,1,0,0,0,1 @ F,0,0,1,0,0,0,1 @ F,0,0,1,0,0,0,1 | F,0,0,1,0,0,0,1 @ F,0,0,1,0,0,0,1 @ F,0,0,1,0,0,0,1 @ F,0,0,1,0,0,0,1 @ F,0,0,1,0,0,0,1 @ F,0,0,1,0,0,0,1 @ F,0,0,1,0,0,0,1 @ F,0,0,1,0,0,0,1"
       unit="px"
       method="auto"
       mode="F"
       radius="20"
       chamfer_steps="1"
       flexible="false"
       use_knot_distance="true"
       apply_no_radius="true"
       apply_with_radius="true"
       only_selected="true"
       hide_knots="false" />
    <rect
       id="rect837"
       height="133.66702"
       width="133.66702"
       y="73.546043"
       x="55.451382" />
    <rect
       x="55.451382"
       y="73.546043"
       width="133.66702"
       height="133.66702"
       id="rect849" />
    <rect
       id="rect855"
       height="133.66702"
       width="133.66702"
       y="73.546043"
       x="55.451382" />
    <rect
       x="55.451382"
       y="73.546043"
       width="133.66702"
       height="133.66702"
       id="rect867" />
    <rect
       id="rect869"
       height="133.66702"
       width="133.66702"
       y="73.546043"
       x="55.451382" />
    <rect
       id="rect883"
       height="133.66702"
       width="133.66702"
       y="73.546043"
       x="55.451382" />
    <rect
       x="55.451382"
       y="73.546043"
       width="133.66702"
       height="133.66702"
       id="rect885" />
    <rect
       id="rect895"
       height="133.66702"
       width="133.66702"
       y="73.546043"
       x="55.451382" />
    <rect
       x="55.451382"
       y="73.546043"
       width="133.66702"
       height="133.66702"
       id="rect943" />
    <rect
       id="rect951"
       height="133.66702"
       width="133.66702"
       y="73.546043"
       x="55.451382" />
    <rect
       id="rect959"
       height="133.66702"
       width="133.66702"
       y="73.546043"
       x="55.451382" />
    <rect
       x="55.451382"
       y="73.546043"
       width="133.66702"
       height="133.66702"
       id="rect967" />
    <rect
       x="55.451382"
       y="73.546043"
       width="133.66702"
       height="133.66702"
       id="rect989" />
  </defs>
  <sodipodi:namedview
     showgrid="false"
     inkscape:document-rotation="0"
     inkscape:current-layer="g847"
     inkscape:document-units="mm"
     inkscape:cy="472.61573"
     inkscape:cx="960.09973"
     inkscape:zoom="0.18822906"
     inkscape:pageshadow="2"
     inkscape:pageopacity="0.0"
     borderopacity="1.0"
     bordercolor="#666666"
     pagecolor="#ffffff"
     id="base" />
  <metadata
     id="metadata5">
    <rdf:RDF>
      <cc:Work
         rdf:about="">
        <dc:format>image/svg+xml</dc:format>
        <dc:type
           rdf:resource="http://purl.org/dc/dcmitype/StillImage" />
        <dc:title />
      </cc:Work>
    </rdf:RDF>
  </metadata>
  <g
     style="display:inline"
     inkscape:label="Layer 1 copy"
     inkscape:groupmode="layer"
     id="g847"
     transform="translate(282.01369,-38.562653)">
    <path
       d="M 357.78635,358.46268 A 319.90002,319.90002 0 0 1 38.115243,678.36262 319.90002,319.90002 0 0 1 -282.01337,358.9205 319.90002,319.90002 0 0 1 37.199591,38.56339 319.90002,319.90002 0 0 1 357.78504,357.54703"
       style="font-variation-settings:'CASL' 1, 'CRSV' 0.2, 'MONO' 0.25, 'slnt' -9.4, 'wght' 909;fill:#5a6bdd;fill-opacity:1;stroke:none;stroke-width:19.7854;stroke-linecap:round;stroke-linejoin:round;stroke-dashoffset:81.6378;stroke-opacity:0.992157;paint-order:fill markers stroke"
       id="path841" />
  </g>
  <g
     inkscape:groupmode="layer"
     id="g865"
     inkscape:label="BB"
     style="display:inline"
     transform="translate(314.43215,-0.94316359)">
    <path
       d="m -17.218048,309.82257 a 25.606133,21.638988 0 0 1 -25.587809,21.63898 25.606133,21.638988 0 0 1 -25.62443,-21.60801 25.606133,21.638988 0 0 1 25.551137,-21.66991 25.606133,21.638988 0 0 1 25.660997,21.577"
       transform="rotate(-5.6336585)"
       style="font-variation-settings:'wdth' 85.3, 'wght' 741;fill:#272726;fill-opacity:1;stroke:none;stroke-width:5.18572;stroke-linecap:round;stroke-linejoin:round;stroke-dashoffset:81.6378;paint-order:fill markers stroke"
       id="path887" />
    <g
       style="font-style:normal;font-variant:normal;font-weight:normal;font-stretch:normal;font-size:10.5833px;line-height:1.25;font-family:Archivo;-inkscape-font-specification:'Archivo, @wght=741,wdth=85.3';font-variant-ligatures:normal;font-variant-caps:normal;font-variant-numeric:normal;font-variant-east-asian:normal;font-variation-settings:'wdth' 85.3, 'wght' 741;white-space:pre;shape-inside:url(#rect883);display:inline;fill:#272727;fill-opacity:1;stroke:#272726;stroke-width:0.79023;stroke-linecap:round;stroke-linejoin:round;stroke-miterlimit:4;stroke-dasharray:none;stroke-opacity:1"
       id="text875"
       transform="matrix(48.979458,-4.8315292,4.8315292,48.979458,-3127.7395,-3317.0471)"
       aria-label="B">
      <path
         id="path898"
         style="font-style:normal;font-variant:normal;font-weight:normal;font-stretch:normal;font-size:10.5833px;font-family:Archivo;-inkscape-font-specification:'Archivo, @wght=741,wdth=85.3';font-variant-ligatures:normal;font-variant-caps:normal;font-variant-numeric:normal;font-variant-east-asian:normal;font-variation-settings:'wdth' 85.3, 'wght' 741;fill:#272727;fill-opacity:1;stroke:#272726;stroke-width:0.79023;stroke-linecap:round;stroke-linejoin:round;stroke-miterlimit:4;stroke-dasharray:none;stroke-opacity:1"
         d="m 56.139086,83.410355 v -7.270727 h 3.513656 q 0.592665,0 1.037163,0.222249 0.444499,0.211666 0.687915,0.613831 0.253999,0.391583 0.253999,0.931331 0,0.455082 -0.15875,0.793747 -0.148166,0.338666 -0.402165,0.560915 -0.253999,0.222249 -0.571498,0.349249 v 0.04233 q 0.359832,0.08467 0.656164,0.306916 0.296333,0.211666 0.465666,0.571498 0.169332,0.349249 0.169332,0.867831 0,0.677331 -0.296332,1.121829 -0.285749,0.444499 -0.793748,0.666748 -0.507998,0.22225 -1.164162,0.22225 z m 1.608662,-1.322913 h 1.598078 q 0.380999,0 0.592665,-0.222249 0.211666,-0.222249 0.211666,-0.687915 0,-0.243415 -0.09525,-0.433915 -0.08467,-0.201083 -0.275166,-0.306916 -0.179916,-0.105833 -0.455081,-0.105833 h -1.576912 z m 0,-2.995074 h 1.471079 q 0.264582,0 0.433915,-0.105833 0.169333,-0.116416 0.253999,-0.306915 0.09525,-0.1905 0.09525,-0.455082 0,-0.370416 -0.211666,-0.582082 -0.201083,-0.211666 -0.539749,-0.211666 h -1.502828 z" />
    </g>
    <g
       style="font-style:normal;font-variant:normal;font-weight:normal;font-stretch:normal;font-size:10.5833px;line-height:1.25;font-family:Archivo;-inkscape-font-specification:'Archivo, @wght=741,wdth=85.3';font-variant-ligatures:normal;font-variant-caps:normal;font-variant-numeric:normal;font-variant-east-asian:normal;font-variation-settings:'wdth' 85.3, 'wght' 741;white-space:pre;shape-inside:url(#rect867);display:inline;fill:#272727;fill-opacity:1;stroke:#272726;stroke-width:0.79023;stroke-linecap:round;stroke-linejoin:round;stroke-miterlimit:4;stroke-dasharray:none;stroke-opacity:1"
       id="text857"
       transform="matrix(48.979458,-4.8315292,4.8315292,48.979458,-3407.653,-3289.4353)"
       aria-label="B">
      <path
         id="path901"
         style="font-style:normal;font-variant:normal;font-weight:normal;font-stretch:normal;font-size:10.5833px;font-family:Archivo;-inkscape-font-specification:'Archivo, @wght=741,wdth=85.3';font-variant-ligatures:normal;font-variant-caps:normal;font-variant-numeric:normal;font-variant-east-asian:normal;font-variation-settings:'wdth' 85.3, 'wght' 741;fill:#272727;fill-opacity:1;stroke:#272726;stroke-width:0.79023;stroke-linecap:round;stroke-linejoin:round;stroke-miterlimit:4;stroke-dasharray:none;stroke-opacity:1"
         d="m 56.139086,83.410355 v -7.270727 h 3.513656 q 0.592665,0 1.037163,0.222249 0.444499,0.211666 0.687915,0.613831 0.253999,0.391583 0.253999,0.931331 0,0.455082 -0.15875,0.793747 -0.148166,0.338666 -0.402165,0.560915 -0.253999,0.222249 -0.571498,0.349249 v 0.04233 q 0.359832,0.08467 0.656164,0.306916 0.296333,0.211666 0.465666,0.571498 0.169332,0.349249 0.169332,0.867831 0,0.677331 -0.296332,1.121829 -0.285749,0.444499 -0.793748,0.666748 -0.507998,0.22225 -1.164162,0.22225 z m 1.608662,-1.322913 h 1.598078 q 0.380999,0 0.592665,-0.222249 0.211666,-0.222249 0.211666,-0.687915 0,-0.243415 -0.09525,-0.433915 -0.08467,-0.201083 -0.275166,-0.306916 -0.179916,-0.105833 -0.455081,-0.105833 h -1.576912 z m 0,-2.995074 h 1.471079 q 0.264582,0 0.433915,-0.105833 0.169333,-0.116416 0.253999,-0.306915 0.09525,-0.1905 0.09525,-0.455082 0,-0.370416 -0.211666,-0.582082 -0.201083,-0.211666 -0.539749,-0.211666 h -1.502828 z" />
    </g>
    <path
       id="path919"
       style="font-style:normal;font-variant:normal;font-weight:normal;font-stretch:normal;font-size:10.5833px;line-height:1.25;font-family:Archivo;-inkscape-font-specification:'Archivo, @wght=741,wdth=85.3';font-variant-ligatures:normal;font-variant-caps:normal;font-variant-numeric:normal;font-variant-east-asian:normal;font-variation-settings:'wdth' 85.3, 'wght' 741;white-space:pre;fill:#e3d770;fill-opacity:1;stroke:#262626;stroke-width:5.18572;stroke-linecap:round;stroke-linejoin:round;stroke-miterlimit:4;stroke-dasharray:none;stroke-opacity:0.992157"
       d="m -21.21457,131.96101 3.032091,30.73771 c 0.286895,2.90839 2.07729,7.05449 3.846767,9.37997 0.117618,0.15458 1.698128,2.12879 3.376781,4.5206 10.04599443,14.31391 15.9221517,31.45251 17.7640124,50.12431 1.4856136,15.06035 0.5336822,29.41174 -3.2679,42.67623 -0.8050598,2.80902 -2.3245216,7.30068 -3.36577797,10.0311 -0.98394248,2.58012 -2.06137923,5.10526 -3.23185633,7.56986 -1.253595,2.63961 -2.1624001,7.07569 -1.8755048,9.98408 l 2.2233771,22.5394 c 0.2868953,2.90839 2.30604501,6.82587 4.3762367,8.88812 5.5476389,5.52635 10.4319089,11.826 14.5802929,18.75681 8.594101,14.06224 13.332017,30.84654 15.206234,49.84636 2.258444,22.89488 -0.394653,44.15446 -8.882409,62.5667 -1.223327,2.65372 -3.420315,6.85614 -4.88725,9.38345 -0.635596,1.09503 -1.290278,2.17679 -1.963608,3.24511 -1.558114,2.47215 -2.700939,6.76116 -2.414043,9.66955 l 0.611331,6.19735 166.394206,-16.41379 c 21.4257,-2.11352 40.07433,-7.61736 55.9461,-16.51075 15.8718,-8.89338 27.75714,-21.05735 35.65596,-36.49197 8.24439,-15.46868 11.27589,-34.26135 9.09419,-56.37822 -1.67036,-16.93324 -5.83268,-30.82889 -12.48682,-41.68749 -6.68824,-11.20415 -15.21028,-19.7858 -25.56822,-25.74283 -10.39199,-6.3025 -21.60005,-10.25564 -33.62236,-11.86134 l -0.20453,-2.07348 c 9.95823,-5.1696 18.7272,-11.7926 26.30514,-19.86782 7.57796,-8.07523 13.24016,-17.87991 16.98737,-29.4156 4.09281,-11.56975 5.40602,-24.78456 3.94019,-39.64433 -1.73854,-17.62437 -7.38552,-32.42106 -16.94065,-44.3893 -9.24364,-12.34782 -21.46275,-21.26135 -36.6587,-26.74113 -15.23006,-5.82535 -32.52111,-7.78401 -51.87338,-5.87502 z m 85.029067,55.46815 73.607783,-7.26097 c 11.05845,-1.09085 20.21143,1.49576 27.45919,7.75958 7.59329,6.22975 11.9866,15.39212 13.17971,27.48729 0.85223,8.63939 0.031,16.22247 -2.46558,22.74968 -2.15103,6.49306 -5.8037,11.91349 -10.95795,16.26025 -5.18832,4.00118 -12.1028,6.42733 -20.7422,7.27956 l -72.05301,7.10759 z m 14.010524,142.03119 77.236029,-7.61887 c 8.98495,-0.88631 16.58659,0.10925 22.80228,2.9855 6.56116,2.84217 11.54744,7.41039 14.95987,13.70362 3.72381,5.91358 5.97802,12.84368 6.76206,20.7919 1.49992,15.20538 -0.848,26.77815 -7.04367,34.71703 -6.19563,7.93887 -15.51421,12.52106 -27.95494,13.74826 L 86.313203,415.509 Z" />
    <g
       style="font-style:normal;font-variant:normal;font-weight:normal;font-stretch:normal;font-size:10.5833px;line-height:1.25;font-family:Archivo;-inkscape-font-specification:'Archivo, @wght=741,wdth=85.3';font-variant-ligatures:normal;font-variant-caps:normal;font-variant-numeric:normal;font-variant-east-asian:normal;font-variation-settings:'wdth' 85.3, 'wght' 741;white-space:pre;shape-inside:url(#rect869);display:inline;fill:#e3d770;fill-opacity:1;stroke:#262626;stroke-width:0.105364;stroke-linecap:round;stroke-linejoin:round;stroke-miterlimit:4;stroke-dasharray:none;stroke-opacity:0.992157"
       id="text863"
       transform="matrix(48.979458,-4.8315292,4.8315292,48.979458,-3418.6617,-3298.4668)"
       aria-label="B">
      <path
         id="path904"
         style="font-style:normal;font-variant:normal;font-weight:normal;font-stretch:normal;font-size:10.5833px;font-family:Archivo;-inkscape-font-specification:'Archivo, @wght=741,wdth=85.3';font-variant-ligatures:normal;font-variant-caps:normal;font-variant-numeric:normal;font-variant-east-asian:normal;font-variation-settings:'wdth' 85.3, 'wght' 741;fill:#e3d770;fill-opacity:1;stroke:#262626;stroke-width:0.105364;stroke-linecap:round;stroke-linejoin:round;stroke-miterlimit:4;stroke-dasharray:none;stroke-opacity:0.992157"
         d="m 56.139086,83.410355 v -7.270727 h 3.513656 q 0.592665,0 1.037163,0.222249 0.444499,0.211666 0.687915,0.613831 0.253999,0.391583 0.253999,0.931331 0,0.455082 -0.15875,0.793747 -0.148166,0.338666 -0.402165,0.560915 -0.253999,0.222249 -0.571498,0.349249 v 0.04233 q 0.359832,0.08467 0.656164,0.306916 0.296333,0.211666 0.465666,0.571498 0.169332,0.349249 0.169332,0.867831 0,0.677331 -0.296332,1.121829 -0.285749,0.444499 -0.793748,0.666748 -0.507998,0.22225 -1.164162,0.22225 z m 1.608662,-1.322913 h 1.598078 q 0.380999,0 0.592665,-0.222249 0.211666,-0.222249 0.211666,-0.687915 0,-0.243415 -0.09525,-0.433915 -0.08467,-0.201083 -0.275166,-0.306916 -0.179916,-0.105833 -0.455081,-0.105833 h -1.576912 z m 0,-2.995074 h 1.471079 q 0.264582,0 0.433915,-0.105833 0.169333,-0.116416 0.253999,-0.306915 0.09525,-0.1905 0.09525,-0.455082 0,-0.370416 -0.211666,-0.582082 -0.201083,-0.211666 -0.539749,-0.211666 h -1.502828 z" />
    </g>
  </g>
</svg>
